<svg width="32" height="32" viewBox="0 0 32 32" fill="none" xmlns="http://www.w3.org/2000/svg">
<rect width="32" height="32" rx="6" fill="#DBEAFE"/>
<path d="M15.9545 24.8182V6.63636H17.1193V24.8182H15.9545ZM18.7599 12.8153C18.7126 12.2945 18.5019 11.8897 18.1278 11.6009C17.7585 11.3073 17.2306 11.1605 16.544 11.1605C16.0895 11.1605 15.7107 11.2197 15.4077 11.3381C15.1046 11.4564 14.8774 11.6198 14.7259 11.8281C14.5743 12.0317 14.4962 12.2661 14.4915 12.5312C14.482 12.7491 14.5246 12.9408 14.6193 13.1065C14.7188 13.2723 14.8608 13.419 15.0455 13.5469C15.2348 13.67 15.4621 13.7789 15.7273 13.8736C15.9924 13.9683 16.2907 14.0511 16.6222 14.1222L17.8722 14.4062C18.5919 14.5625 19.2263 14.7708 19.7756 15.0312C20.3295 15.2917 20.7936 15.6018 21.1676 15.9616C21.5464 16.3215 21.8329 16.7358 22.027 17.2045C22.2211 17.6733 22.3205 18.1989 22.3253 18.7812C22.3205 19.6998 22.0885 20.4882 21.6293 21.1463C21.17 21.8045 20.5095 22.3087 19.6477 22.6591C18.7907 23.0095 17.7562 23.1847 16.544 23.1847C15.3272 23.1847 14.2666 23.0024 13.3622 22.6378C12.4579 22.2732 11.7547 21.7192 11.2528 20.9759C10.7509 20.2325 10.4929 19.2926 10.4787 18.1562H13.8452C13.8736 18.625 13.9991 19.0156 14.2216 19.3281C14.4441 19.6406 14.7495 19.8774 15.1378 20.0384C15.5308 20.1993 15.9853 20.2798 16.5014 20.2798C16.9749 20.2798 17.3774 20.2159 17.7088 20.0881C18.045 19.9602 18.303 19.7827 18.483 19.5554C18.6629 19.3281 18.7552 19.0677 18.7599 18.7741C18.7552 18.4995 18.67 18.2652 18.5043 18.071C18.3385 17.8722 18.0829 17.7017 17.7372 17.5597C17.3963 17.4129 16.9607 17.2779 16.4304 17.1548L14.9105 16.7997C13.651 16.5109 12.6591 16.0445 11.9347 15.4006C11.2102 14.7519 10.8504 13.8759 10.8551 12.7727C10.8504 11.8731 11.0919 11.0848 11.5795 10.4077C12.0672 9.73059 12.742 9.20265 13.6037 8.82386C14.4654 8.44508 15.4479 8.25568 16.5511 8.25568C17.678 8.25568 18.6558 8.44744 19.4844 8.83097C20.3177 9.20975 20.964 9.74242 21.4233 10.429C21.8826 11.1155 22.117 11.911 22.1264 12.8153H18.7599Z" fill="#1E3A8A"/>
</svg>
